# AST/ASF file generated using VICON BodyLanguage
# -----------------------------------------------
:version 1.10
:name VICON
:units
  mass 1.0
  length 0.45
  angle deg
:documentation
   .ast/.asf automatically generated from VICON data using
   VICON BodyBuilder and BodyLanguage model FoxedUp or BRILLIANT.MOD
:root
   order TX TY TZ RX RY RZ
   axis XYZ
   position 0 0 0  
   orientation 0 0 0 
:bonedata
  begin
     id 1 
     name lhipjoint
     direction 0.621036 -0.695554 0.361275 
     length 2.46325 
     axis 0 0 0  XYZ
  end
  begin
     id 2 
     name lfemur
     direction 0.34202 -0.939693 0  
     length 6.54784  
     axis 0 0 20  XYZ
    dof rx ry rz
    limits (-160.0 20.0)
           (-70.0 70.0)
           (-60.0 70.0)
  end
  begin
     id 3 
     name ltibia
     direction 0.34202 -0.939693 0   
     length 7.84737   
     axis 0 0 20   XYZ
    dof rx
    limits (-10.0 170.0)
  end
  begin
     id 4 
     name lfoot
     direction 0.0790693 -0.217241 0.97291   
     length 2.59747   
     axis -90 7.62852e-016 20   XYZ
    dof rx rz
    limits (-45.0 90.0)
           (-70.0 20.0)
  end
  begin
     id 5 
     name ltoes
     direction 1.53572e-011 -4.21898e-011 1   
     length 1.29919   
     axis -90 7.62852e-016 20   XYZ
    dof rx
    limits (-90.0 20.0)
  end
  begin
     id 6 
     name rhipjoint
     direction -0.602353 -0.708375 0.367935   
     length 2.41867  
     axis 0 0 0  XYZ 
  end
  begin
     id 7 
     name rfemur
     direction -0.34202 -0.939693 0   
     length 6.92065   
     axis 0 0 -20   XYZ
    dof rx ry rz
    limits (-160.0 20.0)
           (-70.0 70.0)
           (-70.0 60.0)
  end
  begin
     id 8 
     name rtibia
     direction -0.34202 -0.939693 0   
     length 7.88883   
     axis 0 0 -20   XYZ
    dof rx
    limits (-10.0 170.0)
 end
 begin
     id 9 
     name rfoot
     direction -0.0768692 -0.211196 0.974416   
     length 2.43714  
     axis -90 -7.62852e-016 -20   XYZ
    dof rx rz
    limits (-45.0 90.0)
           (-20.0 70.0)
  end
  begin
     id 10 
     name rtoes
     direction -1.53575e-011 -4.21933e-011 1   
     length 1.22113   
     axis -90 -7.62852e-016 -20   XYZ
    dof rx
    limits (-90.0 20.0)
  end
  begin
     id 11 
     name lowerback
     direction 0.0197937 0.98943 -0.143655   
     length 2.16931   
     axis 0 0 0   XYZ
    dof rx ry rz
    limits (-20.0 45.0)
           (-30.0 30.0)
           (-30.0 30.0)
  end
  begin
     id 12 
     name upperback
     direction -0.00183968 0.999975 0.00684288   
     length 2.17221   
     axis 0 0 0   XYZ
    dof rx ry rz
    limits (-20.0 45.0)
           (-30.0 30.0)
           (-30.0 30.0)
  end
  begin
     id 13 
     name thorax
     direction -0.00950244 0.997208 0.0740685   
     length 2.22549   
     axis 0 0 0   XYZ
    dof rx ry rz
    limits (-20.0 45.0)
           (-30.0 30.0)
           (-30.0 30.0)
  end
  begin
     id 14 
     name lowerneck
     direction 0.0218238 0.996215 0.0841425   
     length 1.77269   
     axis 0 0 0   XYZ
    dof rx ry rz
    limits (-20.0 45.0)
           (-30.0 30.0)
           (-30.0 30.0)
  end
  begin
     id 15 
     name upperneck
     direction -0.00430652 0.994214 -0.107332   
     length 1.76534   
     axis 0 0 0   XYZ
    dof rx ry rz
    limits (-20.0 45.0)
           (-30.0 30.0)
           (-30.0 30.0)
  end
  begin
     id 16
     name head
     direction -0.00328946 0.998959 -0.0454998  
     length 1.82634  
     axis 0 0 0   XYZ
    dof rx ry rz
    limits (-20.0 45.0)
           (-30.0 30.0)
           (-30.0 30.0)
  end
  begin
     id 17 
     name lclavicle
     direction 0.970962 0.239191 0.00450212  
     length 3.84872  
     axis 0 0 0   XYZ
    dof ry rz
    limits (-20.0 10.0)
           (0.0 20.0)
  end
  begin
     id 18 
     name lhumerus
     direction 1 -4.48966e-011 5.74696e-028   
     length 5.22771   
     axis 180 -30 -90   XYZ
    dof rx ry rz
    limits (-60.0 90.0)
           (-90.0 90.0)
           (-90.0 90.0)
  end
  begin
     id 19
     name lradius
     direction 1 -4.4896e-011 4.25109e-027   
     length 3.45251   
     axis 180 -30 -90   XYZ
    dof rx
    limits (-10.0 170.0)
  end
  begin
     id 20
     name lwrist
     direction 1 -4.48971e-011 1.15382e-027   
     length 1.72626   
     axis -5.52449e-016 90 90   XYZ
    dof ry
    limits (-180.0 0.0)
 end
  begin
     id 21 
     name lhand
     direction 1 -4.49034e-011 2.30765e-027   
     length 0.552119   
     axis -1.47248e-015 90 90   XYZ
    dof rx rz
    limits (-90.0 90.0)
           (-45.0 45.0)
  end
  begin
     id 22 
     name lfingers
     direction 1 -4.48951e-011 4.61529e-027   
     length 0.445133   
     axis -2.94495e-015 90 90   XYZ
    dof rx
    limits (0.0 90.0)
  end
  begin
     id 23
     name lthumb
     direction 0.707107 -6.34991e-011 0.707107   
     length 0.639124   
     axis -90 45 2.85299e-015   XYZ
    dof rx rz
    limits (-45.0 45.0)
           (-45.0 45.0)
  end
  begin
     id 24 
     name rclavicle
     direction -0.97424 0.222511 -0.0366699   
     length 3.73439  
     axis 0 0 0   XYZ 
    dof ry rz
    limits (-10.0 20.0)
           (-20.0 0.0)
  end
  begin
     id 25 
     name rhumerus
     direction -1 -4.48956e-011 -4.97258e-028  
     length 5.2398   
     axis 180 30 90   XYZ
    dof rx ry rz
    limits (-90.0 60.0)
           (-90.0 90.0)
           (-90.0 90.0)
  end
  begin
     id 26 
     name rradius
     direction -1 -4.4897e-011 -1.72611e-027   
     length 3.48042   
     axis 180 30 90   XYZ
    dof rx
    limits (-10.0 170.0)
  end
  begin
     id 27 
     name rwrist
     direction -1 -4.48976e-011 1.15382e-027   
     length 1.74021   
     axis -5.52449e-016 -90 -90   XYZ
    dof ry
    limits (-180.0 0.0)
  end
  begin
     id 28
     name rhand
     direction -1 -4.48963e-011 2.30765e-027   
     length 0.618713   
     axis -1.47248e-015 -90 -90   XYZ
    dof rx rz
    limits (-90.0 90.0)
           (-45.0 45.0)
  end
  begin
     id 29
     name rfingers
     direction -1 -4.4888e-011 4.61529e-027   
     length 0.498823   
     axis -2.94495e-015 -90 -90   XYZ
    dof rx
    limits (0.0 90.0)
  end
  begin
     id 30
     name rthumb
     direction -0.707107 -6.34968e-011 0.707107   
     length 0.716213   
     axis -90 -45 -2.85299e-015   XYZ
    dof rx rz
    limits (-45.0 45.0)
           (-45.0 45.0)
  end
:hierarchy
  begin
    root lhipjoint rhipjoint lowerback
    lhipjoint lfemur
    lfemur ltibia
    ltibia lfoot
    lfoot ltoes
    rhipjoint rfemur
    rfemur rtibia
    rtibia rfoot
    rfoot rtoes
    lowerback upperback
    upperback thorax
    thorax lowerneck lclavicle rclavicle
    lowerneck upperneck
    upperneck head
    lclavicle lhumerus
    lhumerus lradius
    lradius lwrist
    lwrist lhand lthumb
    lhand lfingers
    rclavicle rhumerus
    rhumerus rradius
    rradius rwrist
    rwrist rhand rthumb
    rhand rfingers
  end

#!OML:ASF G:\JayActor3\Patient Classification 1\Patient 1\Session 5\male.ASF
:FULLY-SPECIFIED
:DEGREES
1
root -38.7406 17.0424 -5.17501 -95.8993 86.9774 -93.4444
lowerback 1.92179 -0.620358 3.26126
upperback 4.48602 -0.740299 -0.5138
thorax 3.49448 -0.213391 -2.3626
lowerneck -9.35163 -0.854469 1.25493
upperneck 13.7145 -1.55653 2.03073
head 5.68938 -0.503284 0.317536
rclavicle -4.37326e-015 -1.98785e-015
rhumerus -34.0631 -3.15419 -87.9627
rradius 31.6799
rwrist -0.0741773
rhand -16.8546 -12.1421
rfingers 7.12502
rthumb 9.37566 -41.9136
lclavicle -4.37326e-015 -1.98785e-015
lhumerus -32.3725 3.48519 84.2505
lradius 28.5354
lwrist 19.5165
lhand -19.2605 21.9782
lfingers 7.12502
lthumb 7.05367 51.8406
rfemur -6.02807 4.06262 24.326
rtibia 33.4782
rfoot -25.0381 -12.739
rtoes 7.55023
lfemur 3.68978 3.68334 -15.9235
ltibia 16.5329
lfoot -17.1614 4.44039
ltoes -4.00062
2
root -38.7419 17.0427 -5.17479 -94.8015 86.9094 -92.3291
lowerback 1.9496 -0.607966 3.33267
upperback 4.47321 -0.723614 -0.490663
thorax 3.46632 -0.203853 -2.37823
lowerneck -9.31289 -0.851049 1.25869
upperneck 13.6764 -1.54913 2.01763
head 5.67063 -0.501395 0.313538
rclavicle -3.926e-015 -6.75868e-015
rhumerus -34.0863 -3.15666 -87.9383
rradius 31.6436
rwrist -0.0203587
rhand -17.0337 -11.9858
rfingers 7.12502
rthumb 9.20282 -41.7649
lclavicle -3.926e-015 -6.75868e-015
lhumerus -32.4029 3.47706 84.2789
lradius 28.5448
lwrist 19.5087
lhand -19.2834 22.0224
lfingers 7.12502
lthumb 7.03158 51.8856
rfemur -5.99959 4.08423 24.4037
rtibia 33.4382
rfoot -25.0085 -12.7267
rtoes 7.59028
lfemur 3.69676 3.7019 -15.8476
ltibia 16.5783
lfoot -17.2117 4.47932
ltoes -3.9435
3
root -38.7425 17.0424 -5.17529 -94.9659 86.9306 -92.4776
lowerback 1.95207 -0.613089 3.33094
upperback 4.48133 -0.729749 -0.507858
thorax 3.47281 -0.206307 -2.3951
lowerneck -9.37612 -0.849766 1.27126
upperneck 13.7208 -1.55245 2.02331
head 5.69536 -0.500834 0.31273
rclavicle -4.52235e-015 -1.19271e-015
rhumerus -34.0828 -3.17688 -87.9332
rradius 31.6219
rwrist 0.000206829
rhand -17.0051 -12.0544
rfingers 7.12502
rthumb 9.23042 -41.8323
lclavicle -4.52235e-015 -1.19271e-015
lhumerus -32.419 3.45946 84.2839
lradius 28.5669
lwrist 19.5051
lhand -19.2868 22.0315
lfingers 7.12502
lthumb 7.02832 51.8948
rfemur -5.97119 4.04955 24.3671
rtibia 33.4215
rfoot -25.0116 -12.6762
rtoes 7.67696
lfemur 3.71268 3.64102 -15.8838
ltibia 16.5746
lfoot -17.2293 4.50756
ltoes -3.88557
4
root -38.7439 17.0431 -5.17416 -95.4115 86.921 -92.9293
lowerback 1.9373 -0.622556 3.32014
upperback 4.48793 -0.743083 -0.499784
thorax 3.48729 -0.213077 -2.38103
lowerneck -9.38077 -0.853491 1.28228
upperneck 13.706 -1.55566 1.99765
head 5.69123 -0.504112 0.302597
rclavicle 1.78906e-015 -3.97569e-015
rhumerus -34.0789 -3.17226 -87.926
rradius 31.4877
rwrist 0.328435
rhand -17.6368 -11.1689
rfingers 7.12502
rthumb 8.6208 -40.9729
lclavicle 1.78906e-015 -3.97569e-015
lhumerus -32.3959 3.48172 84.2983
lradius 28.5626
lwrist 19.5043
lhand -19.3106 22.1179
lfingers 7.12502
lthumb 7.00531 51.982
rfemur -5.97051 4.04563 24.3838
rtibia 33.3988
rfoot -25.0513 -12.6926
rtoes 7.78723
lfemur 3.69072 3.64833 -15.8673
ltibia 16.5857
lfoot -17.2024 4.48999
ltoes -3.9583
5
root -38.7452 17.0434 -5.1736 -95.493 86.9063 -93.0074
lowerback 1.93725 -0.626462 3.32994
upperback 4.49078 -0.74837 -0.496141
thorax 3.4899 -0.215324 -2.38283
lowerneck -9.39993 -0.853249 1.28995
upperneck 13.7093 -1.5563 1.9914
head 5.69544 -0.504403 0.299239
rclavicle 3.8763e-015 -4.37326e-015
rhumerus -34.0837 -3.16555 -87.924
rradius 31.3665
rwrist 0.614669
rhand -18.1293 -10.5121
rfingers 7.12502
rthumb 8.14553 -40.3351
lclavicle 3.8763e-015 -4.37326e-015
lhumerus -32.3915 3.48502 84.3098
lradius 28.565
lwrist 19.5052
lhand -19.3251 22.1567
lfingers 7.12502
lthumb 6.99131 52.0213
rfemur -5.96165 4.04292 24.4014
rtibia 33.3819
rfoot -25.0648 -12.6866
rtoes 7.85989
lfemur 3.69085 3.64136 -15.8501
ltibia 16.5831
lfoot -17.1924 4.49269
ltoes -3.98448
6
root -38.7466 17.0437 -5.17294 -95.6001 86.8897 -93.114
lowerback 1.93625 -0.631362 3.33925
upperback 4.4943 -0.755042 -0.491294
thorax 3.49367 -0.218265 -2.38314
lowerneck -9.41952 -0.851583 1.28874
upperneck 13.7085 -1.55544 1.99748
head 5.69861 -0.503586 0.301327
rclavicle -7.05686e-015 -1.23246e-014
rhumerus -34.0849 -3.15395 -87.924
rradius 31.2367
rwrist 0.928682
rhand -18.6452 -9.82149
rfingers 7.12502
rthumb 7.64764 -39.6632
lclavicle -7.05686e-015 -1.23246e-014
lhumerus -32.3811 3.49214 84.3192
lradius 28.5642
lwrist 19.5089
lhand -19.3362 22.1908
lfingers 7.12502
lthumb 6.98064 52.0557
rfemur -5.95464 4.04434 24.4228
rtibia 33.3617
rfoot -25.0775 -12.686
rtoes 7.9284
lfemur 3.67805 3.63775 -15.8292
ltibia 16.5959
lfoot -17.1859 4.48996
ltoes -4.01899
7
root -38.7482 17.044 -5.17212 -95.648 86.8691 -93.1631
lowerback 1.93802 -0.634754 3.35117
upperback 4.49546 -0.759662 -0.485236
thorax 3.49356 -0.220243 -2.3836
lowerneck -9.43422 -0.850018 1.28579
upperneck 13.7047 -1.55488 2.00785
head 5.70006 -0.502747 0.305047
rclavicle 2.13694e-015 1.74931e-014
rhumerus -34.0857 -3.14608 -87.9223
rradius 31.122
rwrist 1.20773
rhand -19.0922 -9.23074
rfingers 7.12502
rthumb 7.2161 -39.0877
lclavicle 2.13694e-015 1.74931e-014
lhumerus -32.3682 3.49697 84.3277
lradius 28.56
lwrist 19.5162
lhand -19.3427 22.2245
lfingers 7.12502
lthumb 6.9743 52.0896
rfemur -5.95178 4.0522 24.4511
rtibia 33.3428
rfoot -25.0891 -12.6933
rtoes 7.98798
lfemur 3.66146 3.63954 -15.8022
ltibia 16.6112
lfoot -17.1804 4.48553
ltoes -4.05142
8
root -38.7499 17.0444 -5.17129 -95.6386 86.8502 -93.1565
lowerback 1.94217 -0.636264 3.36219
upperback 4.49427 -0.76168 -0.480073
thorax 3.48983 -0.221059 -2.38442
lowerneck -9.44434 -0.848638 1.28121
upperneck 13.6962 -1.55472 2.02236
head 5.69929 -0.501987 0.310324
rclavicle 2.6339e-015 3.97569e-016
rhumerus -34.0854 -3.14389 -87.9177
rradius 31.0405
rwrist 1.40462
rhand -19.3985 -8.83525
rfingers 7.12502
rthumb 6.92051 -38.7021
lclavicle 2.6339e-015 3.97569e-016
lhumerus -32.3568 3.49795 84.3351
lradius 28.5564
lwrist 19.5246
lhand -19.3385 22.2573
lfingers 7.12502
lthumb 6.97837 52.1223
rfemur -5.95384 4.06199 24.4774
rtibia 33.3279
rfoot -25.0958 -12.7039
rtoes 8.02146
lfemur 3.64343 3.63944 -15.7775
ltibia 16.6245
lfoot -17.1741 4.48489
ltoes -4.07596
9
root -38.7517 17.0448 -5.17046 -95.624 86.841 -93.1449
lowerback 1.94729 -0.636762 3.36328
upperback 4.49228 -0.76223 -0.477359
thorax 3.48485 -0.221479 -2.38216
lowerneck -9.44489 -0.848562 1.27128
upperneck 13.6786 -1.55626 2.04463
head 5.69416 -0.501954 0.318828
rclavicle 8.84592e-015 2.38542e-015
rhumerus -34.0834 -3.14844 -87.9087
rradius 30.994
rwrist 1.51376
rhand -19.5613 -8.62211
rfingers 7.12502
rthumb 6.76328 -38.4941
lclavicle 8.84592e-015 2.38542e-015
lhumerus -32.3454 3.4993 84.342
lradius 28.5536
lwrist 19.5327
lhand -19.3289 22.2952
lfingers 7.12502
lthumb 6.98769 52.1599
rfemur -5.9601 4.06858 24.4923
rtibia 33.3188
rfoot -25.1066 -12.7136
rtoes 8.05832
lfemur 3.62837 3.64174 -15.7636
ltibia 16.6311
lfoot -17.1648 4.4854
ltoes -4.09634
10
root -38.7537 17.0453 -5.1696 -95.6026 86.8389 -93.1278
lowerback 1.95015 -0.636047 3.35554
upperback 4.4917 -0.761185 -0.475481
thorax 3.48277 -0.2213 -2.37583
lowerneck -9.44323 -0.849734 1.26394
upperneck 13.6534 -1.5593 2.06362
head 5.68622 -0.502942 0.325775
rclavicle -7.00716e-015 -7.95139e-016
rhumerus -34.0741 -3.16172 -87.8935
rradius 30.9909
rwrist 1.51341
rhand -19.5613 -8.61847
rfingers 7.12502
rthumb 6.76328 -38.4904
lclavicle -7.00716e-015 -7.95139e-016
lhumerus -32.3307 3.50131 84.3501
lradius 28.5521
lwrist 19.5381
lhand -19.314 22.3326
lfingers 7.12502
lthumb 7.00207 52.1968
rfemur -5.97208 4.07571 24.499
rtibia 33.3161
rfoot -25.1084 -12.7267
rtoes 8.06781
lfemur 3.61664 3.64255 -15.7582
ltibia 16.6282
lfoot -17.149 4.48796
ltoes -4.12444
11
root -38.7557 17.0457 -5.1688 -95.6216 86.8481 -93.1508
lowerback 1.9538 -0.635141 3.33661
upperback 4.49062 -0.759746 -0.476961
thorax 3.47981 -0.221271 -2.36668
lowerneck -9.4334 -0.850863 1.25388
upperneck 13.6206 -1.56244 2.0889
head 5.67457 -0.50382 0.335167
rclavicle 6.70898e-015 3.97569e-015
rhumerus -34.0694 -3.17358 -87.8795
rradius 30.991
rwrist 1.51225
rhand -19.5602 -8.6081
rfingers 7.12502
rthumb 6.76439 -38.48
lclavicle 6.70898e-015 3.97569e-015
lhumerus -32.3187 3.50453 84.3567
lradius 28.5523
lwrist 19.5403
lhand -19.2962 22.3636
lfingers 7.12502
lthumb 7.01919 52.2272
rfemur -5.98611 4.07784 24.4913
rtibia 33.319
rfoot -25.1172 -12.7289
rtoes 8.09983
lfemur 3.6101 3.63985 -15.7667
ltibia 16.6157
lfoot -17.1269 4.4935
ltoes -4.15512
12
root -38.7578 17.0459 -5.16805 -95.7019 86.862 -93.2339
lowerback 1.95876 -0.636358 3.3126
upperback 4.49098 -0.761019 -0.479512
thorax 3.47744 -0.222694 -2.3558
lowerneck -9.42904 -0.852103 1.24664
upperneck 13.5889 -1.56566 2.10941
head 5.66415 -0.504931 0.342567
rclavicle -2.73329e-015 -5.96354e-015
rhumerus -34.0624 -3.1793 -87.8678
rradius 30.9907
rwrist 1.5148
rhand -19.5672 -8.58173
rfingers 7.12502
rthumb 6.75761 -38.4539
lclavicle -2.73329e-015 -5.96354e-015
lhumerus -32.3071 3.51081 84.3623
lradius 28.5556
lwrist 19.5409
lhand -19.2831 22.3857
lfingers 7.12502
lthumb 7.03188 52.2489
rfemur -5.99978 4.07443 24.4768
rtibia 33.3252
rfoot -25.117 -12.7302
rtoes 8.10554
lfemur 3.60847 3.6385 -15.7809
ltibia 16.5966
lfoot -17.0991 4.4974
ltoes -4.19755
13
root -38.7598 17.0461 -5.16735 -95.8252 86.8783 -93.3579
lowerback 1.97045 -0.637934 3.28863
upperback 4.48838 -0.762459 -0.485063
thorax 3.46815 -0.224329 -2.34795
lowerneck -9.42483 -0.853471 1.24713
upperneck 13.5621 -1.56951 2.12487
head 5.65521 -0.506209 0.34707
rclavicle -2.33572e-015 -7.15625e-015
rhumerus -34.0632 -3.185 -87.8605
rradius 30.994
rwrist 1.5164
rhand -19.5703 -8.55872
rfingers 7.12502
rthumb 6.75464 -38.431
lclavicle -2.33572e-015 -7.15625e-015
lhumerus -32.3033 3.51363 84.3643
lradius 28.562
lwrist 19.5398
lhand -19.2718 22.4035
lfingers 7.12502
lthumb 7.04278 52.2664
rfemur -6.01121 4.06794 24.4592
rtibia 33.3322
rfoot -25.1191 -12.7257
rtoes 8.1211
lfemur 3.61086 3.63371 -15.7981
ltibia 16.5748
lfoot -17.0726 4.4998
ltoes -4.23018
14
root -38.7621 17.0463 -5.16663 -96.0687 86.8939 -93.6012
lowerback 1.98696 -0.642394 3.26483
upperback 4.4845 -0.767564 -0.490924
thorax 3.45457 -0.227877 -2.34048
lowerneck -9.4187 -0.854276 1.25213
upperneck 13.5343 -1.57232 2.13416
head 5.64554 -0.507242 0.348979
rclavicle -1.04362e-015 1.19271e-015
rhumerus -34.0666 -3.18663 -87.8563
rradius 30.9999
rwrist 1.51959
rhand -19.5709 -8.53794
rfingers 7.12502
rthumb 6.75405 -38.4102
lclavicle -1.04362e-015 1.19271e-015
lhumerus -32.3042 3.51733 84.3643
lradius 28.5703
lwrist 19.5374
lhand -19.2635 22.4124
lfingers 7.12502
lthumb 7.05079 52.2749
rfemur -6.02049 4.05594 24.4414
rtibia 33.337
rfoot -25.1209 -12.721
rtoes 8.13926
lfemur 3.6107 3.6242 -15.8153
ltibia 16.5573
lfoot -17.0489 4.49927
ltoes -4.25133
